<svg width="250" height="250" viewBox="0 0 250 250" fill="none" xmlns="http://www.w3.org/2000/svg">
<path d="M250 125C250 194.036 194.036 250 125 250C55.9644 250 0 194.036 0 125C0 55.9644 55.9644 0 125 0C194.036 0 250 55.9644 250 125Z" fill="#090042"/>
<path d="M0 125C2.89824e-06 91.8479 13.1696 60.0537 36.6117 36.6117C60.0537 13.1696 91.8479 3.5567e-06 125 0C158.152 -3.5567e-06 189.946 13.1696 213.388 36.6116C236.83 60.0537 250 91.8479 250 125L149.042 125C149.042 118.624 146.509 112.509 142 108C137.491 103.491 131.376 100.958 125 100.958C118.624 100.958 112.509 103.491 108 108C103.491 112.509 100.958 118.624 100.958 125H0Z" fill="#d9d9ff"/>
<path d="M140 125C140 133.284 133.284 140 125 140C116.716 140 110 133.284 110 125C110 116.716 116.716 110 125 110C133.284 110 140 116.716 140 125Z" fill="#3345E8"/>
<path d="M132 125C132 128.866 128.866 132 125 132C121.134 132 118 128.866 118 125C118 121.134 121.134 118 125 118C128.866 118 132 121.134 132 125Z" fill="#6892FE"/>
</svg>
